HIERARCHY
ROOT Hips
{
	OFFSET 0.000000 0.000000 0.000000
	CHANNELS 6 Xposition Yposition Zposition Zrotation Xrotation Yrotation
	JOINT Ab
	{
		OFFSET 0.000000 8.176430 0.000000
		CHANNELS 6 Xposition Yposition Zposition Zrotation Xrotation Yrotation
		JOINT Chest
		{
			OFFSET 0.000000 21.841286 0.000000
			CHANNELS 6 Xposition Yposition Zposition Zrotation Xrotation Yrotation
			JOINT LeftCollar
			{
				OFFSET 0.000000 21.841286 0.000000
				CHANNELS 6 Xposition Yposition Zposition Zrotation Xrotation Yrotation
				JOINT LeftShoulder
				{
					OFFSET 19.000000 0.000000 0.000000
					CHANNELS 6 Xposition Yposition Zposition Zrotation Xrotation Yrotation
					JOINT LeftElbow
					{
						OFFSET 25.320953 0.000000 0.000000
						CHANNELS 6 Xposition Yposition Zposition Zrotation Xrotation Yrotation
						JOINT LeftWrist
						{
							OFFSET 24.349754 0.000000 0.000000
							CHANNELS 6 Xposition Yposition Zposition Zrotation Xrotation Yrotation
							End Site
							{
								OFFSET 14.833336 0.000000 0.000000
							}
						}
					}
				}
			}
			JOINT Neck
			{
				OFFSET 0.000000 21.841286 0.000000
				CHANNELS 6 Xposition Yposition Zposition Zrotation Xrotation Yrotation
				JOINT Head
				{
					OFFSET 0.000000 10.877777 0.000000
					CHANNELS 6 Xposition Yposition Zposition Zrotation Xrotation Yrotation
					End Site
					{
						OFFSET 0.000000 16.811111 0.000000
					}
				}
			}
			JOINT RightCollar
			{
				OFFSET 0.000000 21.841286 0.000000
				CHANNELS 6 Xposition Yposition Zposition Zrotation Xrotation Yrotation
				JOINT RightShoulder
				{
					OFFSET -19.000000 0.000000 0.000000
					CHANNELS 6 Xposition Yposition Zposition Zrotation Xrotation Yrotation
					JOINT RightElbow
					{
						OFFSET -25.320953 0.000000 0.000000
						CHANNELS 6 Xposition Yposition Zposition Zrotation Xrotation Yrotation
						JOINT RightWrist
						{
							OFFSET -24.349754 0.000000 0.000000
							CHANNELS 6 Xposition Yposition Zposition Zrotation Xrotation Yrotation
							End Site
							{
								OFFSET -14.833336 0.000000 0.000000
							}
						}
					}
				}
			}
		}
	}
	JOINT LeftHip
	{
		OFFSET 11.866667 0.000000 0.000000
		CHANNELS 6 Xposition Yposition Zposition Zrotation Xrotation Yrotation
		JOINT LeftKnee
		{
			OFFSET 0.000000 -45.759548 0.000000
			CHANNELS 6 Xposition Yposition Zposition Zrotation Xrotation Yrotation
			JOINT LeftAnkle
			{
				OFFSET 0.000000 -46.552631 0.000000
				CHANNELS 6 Xposition Yposition Zposition Zrotation Xrotation Yrotation
				End Site
				{
					OFFSET 0.000000 -4.944443 16.811111
				}
			}
		}
	}
	JOINT RightHip
	{
		OFFSET -11.866667 0.000000 0.000000
		CHANNELS 6 Xposition Yposition Zposition Zrotation Xrotation Yrotation
		JOINT RightKnee
		{
			OFFSET 0.000000 -45.759548 0.000000
			CHANNELS 6 Xposition Yposition Zposition Zrotation Xrotation Yrotation
			JOINT RightAnkle
			{
				OFFSET 0.000000 -46.552631 0.000000
				CHANNELS 6 Xposition Yposition Zposition Zrotation Xrotation Yrotation
				End Site
				{
					OFFSET 0.000000 -4.944443 16.811111
				}
			}
		}
	}
}
MOTION
Frames: 8
Frame Time: 0.041667
31.284393 148.263062 -242.332138 0.397728 5.454453 0.658848 0.000009 8.176437 -0.000012 -2.382250 -8.120938 1.013217 0.000002 21.841303 -0.000014 -1.815141 11.696569 1.353152 0.000008 21.841309 -0.000003 -9.596744 -0.143116 1.618847 18.999989 0.000040 0.000009 -57.566187 47.646672 -13.676539 25.320904 -0.000002 -0.000010 7.011760 -0.569321 -8.832258 24.349745 0.000004 -0.000034 4.770465 4.029167 -0.073394 0.000008 21.841309 -0.000003 -1.870205 6.938443 0.040925 -0.000002 10.877804 0.000029 0.933063 -18.174327 0.085691 0.000008 21.841309 -0.000003 11.605579 -0.199354 -1.569675 -18.999989 0.000029 0.000007 69.737816 19.320500 -9.645562 -25.320934 -0.000007 0.000017 -6.368679 -1.438548 23.009625 -24.349754 0.000010 0.000024 8.379294 45.946689 -4.163796 11.866680 0.000018 -0.000010 -4.707844 -18.606730 -9.568084 0.000009 -45.759514 -0.000009 -0.214889 22.397334 -12.530568 0.000002 -46.552631 -0.000020 2.178363 -6.068912 17.855018 -11.866661 0.000009 -0.000002 -5.919733 -13.146752 -11.245622 0.000003 -45.759541 -0.000019 -5.011156 55.972222 10.699985 0.000005 -46.552643 -0.000022 6.768593 2.997794 0.127944 
31.445786 148.661499 -239.370361 -0.156522 5.214070 0.124082 0.000006 8.176437 -0.000018 -1.991316 -7.621659 0.263704 0.000004 21.841316 0.000002 -1.389660 11.610242 0.520888 0.000009 21.841293 -0.000062 -9.383201 -0.110017 1.125972 19.000000 0.000046 -0.000029 -54.493414 48.369504 -16.788835 25.320892 -0.000010 -0.000027 7.232353 -0.574737 -8.552452 24.349735 0.000039 0.000014 5.440877 2.595409 0.122858 0.000009 21.841293 -0.000062 -1.805816 6.630603 0.827722 0.000010 10.877792 -0.000008 1.389537 -17.778489 0.976552 0.000010 21.841293 -0.000062 11.915271 -0.229123 -2.119462 -18.999985 0.000042 0.000000 68.909362 18.282593 -12.066663 -25.320930 -0.000003 -0.000002 -6.944062 -1.534186 22.770355 -24.349735 -0.000003 -0.000029 10.001853 44.759442 -4.754836 11.866677 0.000031 -0.000001 -4.117634 -15.547688 -9.801417 0.000002 -45.759518 -0.000012 -0.084748 20.449491 -12.591615 -0.000016 -46.552601 -0.000011 3.504119 -7.043108 18.945777 -11.866662 0.000005 -0.000025 -6.150580 -17.887004 -10.779567 0.000001 -45.759537 -0.000015 -4.096060 58.357812 8.682933 0.000002 -46.552635 -0.000010 4.986448 2.278525 -1.171902 
31.490902 148.885010 -237.181183 -0.585924 5.132647 -0.204304 0.000009 8.176460 -0.000018 -1.647634 -7.362681 -0.346873 0.000008 21.841314 0.000015 -1.082130 11.495729 -0.149682 0.000010 21.841312 -0.000003 -9.279673 -0.108030 1.079889 19.000004 0.000017 0.000012 -52.312593 48.669128 -18.869289 25.320940 -0.000000 -0.000017 7.479403 -0.583475 -8.490548 24.349695 0.000003 -0.000041 5.829573 1.949648 0.458476 0.000010 21.841312 -0.000003 -2.194442 6.550653 1.596809 0.000007 10.877823 -0.000025 2.330578 -17.421936 1.848369 0.000010 21.841312 -0.000003 12.140925 -0.257798 -2.385886 -18.999998 0.000034 -0.000014 67.889731 17.662652 -13.552384 -25.320940 0.000006 -0.000006 -7.314429 -1.561549 22.436405 -24.349739 0.000000 -0.000005 9.814344 42.867152 -3.841733 11.866674 0.000026 -0.000021 -3.618530 -13.354794 -9.979761 -0.000006 -45.759514 -0.000001 -0.032698 18.937324 -12.576282 -0.000001 -46.552616 -0.000032 4.327150 -7.538830 19.635807 -11.866660 0.000027 -0.000011 -5.901682 -20.982126 -9.934806 0.000006 -45.759521 0.000004 -2.524482 57.615788 6.599119 0.000003 -46.552620 -0.000031 3.043537 0.885292 -2.145530 
31.492039 149.027847 -234.988358 -0.946917 5.127864 -0.476283 0.000007 8.176450 -0.000010 -1.322349 -7.199805 -0.950218 0.000008 21.841318 -0.000005 -0.875307 11.349779 -0.795861 0.000002 21.841343 -0.000019 -9.125020 -0.105347 0.902113 18.999996 0.000038 -0.000021 -50.384052 48.703193 -20.565081 25.320942 -0.000011 -0.000012 7.702072 -0.616822 -8.544128 24.349712 0.000021 -0.000023 6.182011 1.658949 0.867425 0.000002 21.841343 -0.000019 -2.317896 6.591884 2.215024 0.000009 10.877804 0.000031 3.216296 -17.047269 2.581602 0.000002 21.841343 -0.000019 12.458520 -0.300533 -2.925558 -18.999992 0.000015 0.000019 66.701961 17.087385 -14.736359 -25.320936 0.000001 0.000018 -7.732589 -1.615348 22.023680 -24.349726 0.000000 -0.000037 9.163938 40.301678 -2.496232 11.866674 0.000028 -0.000018 -3.151435 -11.296869 -10.114690 0.000002 -45.759514 -0.000015 -0.048170 17.553231 -12.538804 -0.000003 -46.552597 -0.000003 4.977184 -7.871300 20.214356 -11.866658 -0.000003 -0.000039 -5.423676 -23.570151 -8.786764 0.000001 -45.759525 -0.000005 -0.805648 54.761151 4.553136 0.000003 -46.552635 -0.000013 1.068265 -0.928155 -3.009202 
31.454691 149.073334 -232.023987 -1.235016 5.198955 -0.737882 0.000007 8.176478 0.000010 -0.962932 -7.061047 -1.679847 0.000009 21.841288 -0.000001 -0.772776 11.063178 -1.559501 0.000005 21.841293 0.000023 -8.930271 -0.068584 0.567662 18.999992 0.000048 -0.000037 -48.267407 48.366158 -22.216534 25.320919 -0.000009 -0.000041 8.007654 -0.628887 -8.852564 24.349728 0.000037 -0.000012 6.657260 1.385089 1.407747 0.000005 21.841293 0.000023 -2.212416 6.882604 2.801969 0.000007 10.877796 -0.000044 4.259277 -16.719425 3.311113 0.000005 21.841293 0.000023 12.972162 -0.383372 -3.850462 -18.999989 0.000026 -0.000048 65.085487 16.248805 -16.046227 -25.320917 -0.000009 -0.000009 -8.448158 -1.747162 21.482639 -24.349731 0.000008 -0.000001 8.560811 36.586410 -1.068632 11.866676 0.000046 0.000008 -2.692295 -8.785806 -10.267534 0.000004 -45.759510 -0.000004 -0.190931 16.084996 -12.427362 -0.000001 -46.552601 -0.000018 5.646397 -8.222428 20.824758 -11.866663 0.000026 0.000012 -4.637223 -26.096584 -7.014145 0.000002 -45.759544 -0.000017 0.830121 48.147373 2.406965 0.000003 -46.552616 -0.000015 -0.741625 -3.680976 -3.931898 
31.413206 148.993164 -229.750717 -1.273813 5.272521 -0.823156 0.000007 8.176467 -0.000023 -0.781988 -6.953670 -2.131600 0.000003 21.841318 -0.000007 -0.739163 10.740916 -2.023802 0.000005 21.841305 0.000011 -8.972056 -0.049265 0.712845 19.000010 0.000057 -0.000031 -46.991917 47.932451 -23.090329 25.320942 0.000013 -0.000015 8.357458 -0.684891 -9.336779 24.349718 0.000016 -0.000012 7.048159 0.987465 1.778285 0.000005 21.841305 0.000010 -2.545566 7.272694 3.278094 0.000001 10.877777 -0.000044 5.322319 -16.706206 3.911587 0.000005 21.841305 0.000011 13.275720 -0.448941 -4.149944 -18.999994 0.000005 -0.000007 63.962406 15.545454 -17.040226 -25.320946 -0.000007 -0.000018 -9.069260 -1.836052 21.111070 -24.349739 0.000010 -0.000031 8.501637 34.275549 -0.614549 11.866678 0.000036 -0.000047 -2.534573 -7.076868 -10.390623 0.000001 -45.759499 -0.000027 -0.362172 15.359986 -12.351014 0.000010 -46.552601 -0.000006 6.100607 -8.561110 21.223906 -11.866660 0.000021 -0.000030 -4.073705 -27.223297 -5.674346 0.000004 -45.759521 0.000018 1.359258 41.575256 1.258073 0.000003 -46.552612 -0.000030 -1.163271 -5.797580 -4.479624 
31.364492 148.818161 -227.419174 -1.167888 5.333100 -0.763426 0.000005 8.176443 0.000000 -0.675473 -6.815305 -2.494712 0.000001 21.841345 -0.000026 -0.787319 10.343280 -2.391719 0.000007 21.841312 0.000028 -9.057980 -0.050303 0.675821 18.999996 0.000053 0.000000 -45.973471 47.549427 -23.625939 25.320889 0.000020 -0.000004 8.758078 -0.753169 -10.006937 24.349712 0.000029 -0.000007 7.521712 0.249233 2.061954 0.000007 21.841312 0.000028 -2.522339 7.820914 3.493356 -0.000001 10.877811 -0.000010 5.962770 -16.923180 4.217710 0.000007 21.841312 0.000028 13.610398 -0.508759 -4.551143 -18.999985 0.000049 -0.000022 63.013966 14.740894 -18.002545 -25.320936 -0.000002 -0.000028 -9.672976 -1.918983 20.823073 -24.349745 0.000001 0.000015 8.717884 32.855700 -0.716441 11.866674 0.000012 -0.000005 -2.548555 -5.505782 -10.502579 0.000006 -45.759529 -0.000012 -0.542767 15.000829 -12.413157 0.000006 -46.552608 -0.000026 6.605022 -9.055380 21.640923 -11.866660 0.000035 -0.000009 -3.617850 -27.663106 -4.398546 -0.000000 -45.759525 -0.000009 1.423566 34.044552 0.368382 0.000003 -46.552620 0.000000 -0.966640 -7.785934 -4.956882 
31.276798 148.450302 -224.194580 -0.875664 5.352813 -0.368582 0.000004 8.176447 -0.000017 -0.554180 -6.618566 -2.881974 0.000007 21.841341 -0.000012 -0.982740 9.822066 -2.773274 0.000007 21.841312 0.000015 -9.211229 -0.051937 0.544071 18.999989 0.000051 -0.000049 -44.890220 47.311682 -24.100932 25.320930 0.000017 -0.000000 9.316999 -0.885837 -11.121325 24.349712 0.000010 0.000004 8.268554 -1.212310 2.347982 0.000007 21.841312 0.000015 -2.167504 8.596731 3.474824 0.000009 10.877796 -0.000031 6.271206 -17.430351 4.276480 0.000007 21.841312 0.000015 14.016517 -0.591601 -5.080646 -19.000002 0.000012 -0.000017 62.100660 13.726409 -19.220364 -25.320934 0.000005 -0.000001 -10.308741 -2.015610 20.570259 -24.349745 0.000003 -0.000009 9.387869 32.628592 -1.553084 11.866670 0.000037 -0.000026 -2.755223 -3.579993 -10.582742 0.000007 -45.759510 -0.000022 -0.730271 15.090581 -12.891674 0.000010 -46.552593 -0.000010 7.419776 -10.016347 22.261400 -11.866664 0.000014 -0.000021 -3.215872 -27.231517 -2.728355 0.000002 -45.759533 -0.000029 1.085050 23.170942 -0.742716 0.000001 -46.552628 -0.000019 -0.393539 -9.947658 -5.512016 
